<svg viewBox="0 0 18 18" xmlns="http://www.w3.org/2000/svg">
    <symbol viewBox="0 0 18 18" id="navbar-1">
        <path d="M18 5.95102C18 8.41251 16.2473 10.4759 14.9289 11.8139C14.7913 11.9535 14.6096 12.0234 14.4279 12.0234C14.2497 12.0234 14.0716 11.9561 13.9345 11.8212C13.6579 11.5486 13.6546 11.1033 13.9272 10.8269C15.7464 8.98064 16.5938 7.43129 16.5938 5.95102C16.5938 3.77188 15.1769 2.25 13.1484 2.25C11.8294 2.25 10.8555 2.74617 10.2535 3.72491C9.77591 4.50179 9.70148 5.31038 9.70079 5.31848C9.67264 5.68474 9.36722 5.96599 8.99986 5.96599C8.63251 5.96599 8.32709 5.68158 8.29893 5.31532C8.29852 5.31038 8.22409 4.50179 7.74632 3.72491C7.14455 2.74617 6.17061 2.25 4.85156 2.25C2.82307 2.25 1.40625 3.77188 1.40625 5.95102C1.40625 6.93375 1.7791 7.94421 2.54471 9.03516H4.21367L5.38014 6.65181C5.50017 6.40668 5.75217 6.25218 6.02422 6.25795C6.29723 6.26276 6.54263 6.42522 6.65387 6.67447L8.09047 9.89456L9.00536 8.08511C9.12415 7.85028 9.36406 7.70142 9.62718 7.69922H9.63295C9.89388 7.69922 10.1334 7.84369 10.2551 8.07495L10.7604 9.03516H12.3398C12.7282 9.03516 13.043 9.34991 13.043 9.73828C13.043 10.1266 12.7282 10.4414 12.3398 10.4414H10.3359C10.0749 10.4414 9.83537 10.2968 9.7137 10.0658L9.64531 9.93576L8.67824 11.8485C8.55849 12.0855 8.31555 12.2344 8.05092 12.2344C8.04515 12.2344 8.03952 12.2342 8.03375 12.2341C7.76253 12.2276 7.51932 12.0655 7.40863 11.8177L5.98219 8.62056L5.28387 10.0474C5.16591 10.2886 4.92078 10.4414 4.6523 10.4414H0.703125C0.314758 10.4414 0 10.1266 0 9.73828C0 9.34991 0.314758 9.03516 0.703125 9.03516H0.881378C0.289764 7.98871 0 6.97192 0 5.95102C0 4.4577 0.490265 3.17189 1.41792 2.23256C2.30219 1.3369 3.52167 0.84375 4.85156 0.84375C7.17668 0.84375 8.37886 2.04016 8.97789 3.04376C8.98531 3.05612 8.99272 3.06862 9 3.08112C9.00728 3.06862 9.01469 3.05612 9.02211 3.04376C9.62114 2.04016 10.8233 0.84375 13.1484 0.84375C14.4783 0.84375 15.6978 1.3369 16.5821 2.23256C17.5097 3.17189 18 4.4577 18 5.95102ZM11.4542 13.1038L11.4381 13.118C10.5444 13.902 9.69008 14.6522 9 15.387C8.30992 14.6521 7.45546 13.902 6.56172 13.1178C6.08574 12.7003 5.59355 12.2686 5.11647 11.8299C4.83055 11.5671 4.38574 11.5858 4.12303 11.8717C3.86018 12.1575 3.87886 12.6023 4.16478 12.8651C4.65395 13.3149 5.15231 13.7521 5.63434 14.175C6.73572 15.1412 7.77612 16.0539 8.45233 16.894C8.45302 16.8949 8.45384 16.8957 8.45453 16.8967C8.45769 16.9005 8.46098 16.9043 8.46428 16.908C8.47691 16.9229 8.48996 16.9373 8.50369 16.9511C8.50452 16.9519 8.5052 16.9527 8.50589 16.9534C8.52251 16.9699 8.53981 16.9851 8.55766 16.9996C8.55821 17 8.55862 17.0004 8.55917 17.0008C8.55945 17.0012 8.55986 17.0013 8.56013 17.0016C8.57565 17.0141 8.59158 17.0258 8.60806 17.0368C8.60902 17.0375 8.61012 17.0381 8.61108 17.0388C8.6266 17.0491 8.64253 17.0589 8.65874 17.0678C8.65984 17.0685 8.66093 17.0692 8.66217 17.0697C8.67783 17.0784 8.69376 17.0862 8.7101 17.0936C8.71408 17.0954 8.7182 17.0971 8.72218 17.0988C8.73537 17.1045 8.74869 17.1098 8.76215 17.1146C8.76572 17.1159 8.76929 17.1174 8.77272 17.1186C8.78783 17.1237 8.80307 17.1281 8.81845 17.1322C8.82449 17.1339 8.8304 17.1352 8.83644 17.1367C8.84894 17.1398 8.86157 17.1424 8.87434 17.1447C8.87929 17.1455 8.88423 17.1465 8.88918 17.1473C8.90401 17.1497 8.91898 17.1514 8.93381 17.153C8.93916 17.1534 8.94438 17.1538 8.94974 17.1542C8.96581 17.1554 8.98187 17.1561 8.99794 17.1561C8.99849 17.1561 8.99918 17.1562 8.99973 17.1562H9.00014H9.00055C9.0011 17.1562 9.00165 17.1561 9.0022 17.1561C9.0184 17.1561 9.03433 17.1553 9.0504 17.1542C9.05576 17.1538 9.06111 17.1534 9.06633 17.153C9.0813 17.1514 9.09599 17.1498 9.11082 17.1473C9.11591 17.1466 9.12099 17.1455 9.12621 17.1447C9.1387 17.1424 9.1512 17.1398 9.1637 17.1367C9.16974 17.1354 9.17578 17.1339 9.18182 17.1322C9.19707 17.1281 9.21231 17.1237 9.22728 17.1186C9.23099 17.1174 9.2347 17.1159 9.2384 17.1145C9.25159 17.1098 9.26477 17.1046 9.27768 17.099C9.28194 17.0972 9.28619 17.0954 9.29031 17.0935C9.30638 17.0862 9.32231 17.0784 9.33783 17.0699C9.3392 17.0692 9.34058 17.0684 9.34195 17.0675C9.35788 17.0587 9.3734 17.0491 9.38878 17.039C9.39001 17.0383 9.39125 17.0375 9.39235 17.0366C9.40869 17.0258 9.42448 17.0141 9.44 17.0016C9.44028 17.0013 9.44069 17.0012 9.4411 17.0008C9.44165 17.0004 9.44206 17 9.44261 16.9994C9.46033 16.985 9.47763 16.9698 9.49425 16.9534C9.49507 16.9527 9.49576 16.9518 9.49658 16.9509C9.51018 16.9373 9.52336 16.9229 9.536 16.908C9.53915 16.9043 9.54245 16.9005 9.54561 16.8967C9.5463 16.8957 9.54712 16.8949 9.54794 16.894C10.224 16.0539 11.2643 15.1412 12.3657 14.1751L12.3819 14.1608C12.6737 13.9048 12.7028 13.4606 12.4467 13.1686C12.1904 12.8768 11.7462 12.8477 11.4542 13.1038Z"
        />
    </symbol>
    <symbol viewBox="0 0 18 18" id="navbar-2">
        <path d="M11.6719 13.1484C11.2835 13.1484 10.9688 13.4632 10.9688 13.8516C10.9688 15.3636 9.73869 16.5938 8.22656 16.5938C6.71443 16.5938 5.48438 15.3636 5.48438 13.8516V11.8308L7.98404 8.20363C7.99942 8.18124 8.01315 8.15817 8.02565 8.13469C8.0733 8.09019 8.12027 8.04488 8.16614 7.99818C9.0666 7.08275 9.5625 5.80298 9.5625 4.39453C9.5625 4.38245 9.56223 4.37036 9.56154 4.35841L9.5625 1.63477C9.5625 0.733337 8.82916 0 7.92773 0H6.60938C6.22101 0 5.90625 0.314758 5.90625 0.703125V1.40625C5.90625 1.79462 6.22101 2.10938 6.60938 2.10938C6.99774 2.10938 7.3125 1.79462 7.3125 1.40625H7.92773C8.0538 1.40625 8.15625 1.5087 8.15625 1.63449L8.15529 4.39426C8.15529 4.40565 8.15556 4.41692 8.15611 4.42804C8.14101 6.48866 6.72638 7.98047 4.78125 7.98047C2.82568 7.98047 1.40625 6.47232 1.40625 4.39453C1.40625 4.3727 1.40488 4.351 1.40295 4.32957C1.40501 4.30815 1.40625 4.28659 1.40625 4.26462V1.63477C1.40625 1.5087 1.5087 1.40625 1.63477 1.40625H2.21567C2.23407 1.77827 2.54141 2.07422 2.91797 2.07422C3.30634 2.07422 3.62109 1.75946 3.62109 1.37109V0.703125C3.62109 0.314758 3.30634 0 2.91797 0H1.63477C0.733337 0 0 0.733337 0 1.63477V4.26462C0 4.28659 0.00137329 4.30815 0.0032959 4.32957C0.00137329 4.351 0 4.3727 0 4.39453C0 5.80298 0.495895 7.08275 1.39636 7.99818C1.42451 8.02675 1.45294 8.0549 1.48164 8.08264C1.49963 8.12439 1.52174 8.1649 1.54852 8.20363L4.07812 11.8743V13.8516C4.07812 16.1391 5.93907 18 8.22656 18C10.5141 18 12.375 16.1391 12.375 13.8516C12.375 13.4632 12.0602 13.1484 11.6719 13.1484ZM4.78125 9.38672C5.02336 9.38672 5.26204 9.36955 5.49577 9.33604L4.76628 10.3946L4.03322 9.33096C4.27766 9.36777 4.5276 9.38672 4.78125 9.38672ZM16.5938 7.53896V2.8125C16.5938 1.26164 15.3321 0 13.7812 0C12.2304 0 10.9688 1.26164 10.9688 2.8125V10.3359C10.9688 10.7243 11.2835 11.0391 11.6719 11.0391C12.0602 11.0391 12.375 10.7243 12.375 10.3359V2.8125C12.375 2.03714 13.0059 1.40625 13.7812 1.40625C14.5566 1.40625 15.1875 2.03714 15.1875 2.8125V7.53896C14.3692 7.82913 13.7812 8.61067 13.7812 9.52734C13.7812 10.6905 14.7274 11.6367 15.8906 11.6367C17.0538 11.6367 18 10.6905 18 9.52734C18 8.61067 17.4121 7.82913 16.5938 7.53896ZM15.8906 10.2305C15.5029 10.2305 15.1875 9.91502 15.1875 9.52734C15.1875 9.13966 15.5029 8.82422 15.8906 8.82422C16.2783 8.82422 16.5938 9.13966 16.5938 9.52734C16.5938 9.91502 16.2783 10.2305 15.8906 10.2305Z"/>
    </symbol>
    <symbol viewBox="0 0 18 18" id="navbar-3">
        <path d="M16.4716 10.778C16.3262 10.4179 15.9162 10.2441 15.5562 10.3896C15.1962 10.5352 15.0224 10.945 15.1679 11.3051L15.9959 13.3535L13.5365 12.2694C13.3585 12.1908 13.1559 12.1896 12.977 12.266C12.1364 12.6245 11.2359 12.8064 10.3007 12.8064C6.53638 12.8064 4.00773 9.85913 4.00773 7.10637C4.00773 3.96332 6.83081 1.40625 10.3007 1.40625C13.7706 1.40625 16.5937 3.96332 16.5937 7.10637C16.5937 7.3515 16.5709 7.64511 16.531 7.9118C16.4738 8.29591 16.7387 8.65379 17.1227 8.71106C17.5068 8.76833 17.8647 8.50342 17.9219 8.11931C17.9722 7.78217 17.9999 7.42236 17.9999 7.10637C17.9999 5.19626 17.1911 3.40411 15.7223 2.05994C14.271 0.731552 12.3457 0 10.3007 0C8.25574 0 6.33038 0.731552 4.87909 2.05994C3.56663 3.26115 2.78166 4.82025 2.62936 6.5013C0.978529 7.59457 -7.80486e-05 9.34634 -7.80486e-05 11.2332C-7.80486e-05 12.4119 0.37126 13.5305 1.07823 14.4929L0.0511457 17.0333C-0.0561083 17.2987 0.0081617 17.6024 0.213606 17.8017C0.347502 17.9315 0.524107 18 0.703184 18C0.798903 18 0.895445 17.9805 0.986632 17.9403L3.94786 16.6349C4.69273 16.9122 5.48018 17.0526 6.29289 17.0526C6.31047 17.0526 6.32777 17.0512 6.34494 17.05C7.52048 17.041 8.66333 16.7318 9.65306 16.1532C10.5397 15.6349 11.269 14.9227 11.7803 14.0819C12.2793 13.9922 12.7673 13.8568 13.2409 13.6758L17.0132 15.3387C17.1044 15.3789 17.2008 15.3984 17.2967 15.3984C17.4757 15.3984 17.6522 15.3299 17.7861 15.2001C17.9917 15.0009 18.0558 14.6971 17.9486 14.4318L16.4716 10.778ZM6.29289 15.6445C6.28328 15.6445 6.27394 15.6455 6.26446 15.6459C5.54651 15.6423 4.85547 15.5012 4.21002 15.2258C4.03108 15.1495 3.82852 15.1507 3.65054 15.2291L2.00397 15.955L2.53515 14.6411C2.63334 14.3981 2.5883 14.1209 2.41829 13.9213C1.75622 13.1446 1.40617 12.215 1.40617 11.2332C1.40617 10.1096 1.87886 9.04504 2.70585 8.23782C2.96335 9.64133 3.68982 10.984 4.78584 12.0388C6.14952 13.3513 7.95347 14.1117 9.90121 14.2033C8.98674 15.1033 7.67813 15.6445 6.29289 15.6445ZM11.3202 7.76953C11.7086 7.76953 12.0234 8.08429 12.0234 8.47266C12.0234 8.86102 11.7086 9.17578 11.3202 9.17578H7.10148C6.71312 9.17578 6.39836 8.86102 6.39836 8.47266C6.39836 8.08429 6.71312 7.76953 7.10148 7.76953H11.3202ZM13.4296 6.36328H7.10148C6.71312 6.36328 6.39836 6.04852 6.39836 5.66016C6.39836 5.27179 6.71312 4.95703 7.10148 4.95703H13.4296C13.818 4.95703 14.1327 5.27179 14.1327 5.66016C14.1327 6.04852 13.818 6.36328 13.4296 6.36328Z"
        />
    </symbol>
    <symbol viewBox="0 0 18 18" id="navbar-4">
        <path d="M11.6229 13.1133H9.54871C9.16037 13.1133 8.84558 13.4281 8.84558 13.8164C8.84558 14.2047 9.16037 14.5195 9.54871 14.5195H11.6229C12.0113 14.5195 12.326 14.2047 12.326 13.8164C12.326 13.4281 12.0113 13.1133 11.6229 13.1133Z"
        />
        <path d="M11.6229 8.85938H9.54871C9.16037 8.85938 8.84558 9.17416 8.84558 9.5625C8.84558 9.95084 9.16037 10.2656 9.54871 10.2656H11.6229C12.0113 10.2656 12.326 9.95084 12.326 9.5625C12.326 9.17416 12.0113 8.85938 11.6229 8.85938Z"
        />
        <path d="M14.4316 12.375C14.82 12.375 15.1348 12.0602 15.1348 11.6719V2.8125C15.1348 1.26169 13.8731 0 12.3223 0H3.67773C2.12692 0 0.865234 1.26169 0.865234 2.8125V15.1875C0.865234 16.7383 2.12692 18 3.67773 18H12.3222C13.8731 18 15.1347 16.7383 15.1348 15.1875C15.1348 14.7992 14.82 14.4844 14.4316 14.4844C14.0433 14.4844 13.7285 14.7992 13.7285 15.1875C13.7285 15.9629 13.0977 16.5938 12.3223 16.5938H3.67773C2.90233 16.5938 2.27148 15.9629 2.27148 15.1875V2.8125C2.27148 2.03709 2.90233 1.40625 3.67773 1.40625H12.3223C13.0977 1.40625 13.7285 2.03709 13.7285 2.8125V11.6719C13.7285 12.0602 14.0433 12.375 14.4316 12.375Z"
        />
        <path d="M7.99275 2.79779C7.69342 2.5505 7.25021 2.59262 7.00288 2.89201L5.48396 4.73044L4.88461 4.11496C4.61373 3.83677 4.16855 3.83083 3.89032 4.10174C3.61213 4.37265 3.60619 4.8178 3.8771 5.09603L4.63135 5.87063C4.63757 5.87702 4.6439 5.88328 4.65037 5.88944C4.87828 6.10638 5.18249 6.22704 5.49542 6.22704C5.52228 6.22697 5.54931 6.22609 5.57631 6.22426C5.91539 6.20166 6.23205 6.03755 6.44604 5.77377L8.08696 3.78769C8.33432 3.4883 8.29214 3.04512 7.99275 2.79779Z"
        />
        <path d="M7.99262 11.3715C7.6933 11.1242 7.25008 11.1664 7.00276 11.4657L5.48341 13.3046L4.88311 12.6916C4.61139 12.4141 4.16624 12.4095 3.88879 12.6812C3.61133 12.9529 3.60669 13.3981 3.87835 13.6755L4.63259 14.4457C4.63835 14.4516 4.64422 14.4574 4.6502 14.4631C4.87812 14.6801 5.18236 14.8008 5.49529 14.8008C5.52218 14.8007 5.54918 14.7998 5.57618 14.798C5.91523 14.7754 6.23188 14.6113 6.44592 14.3475L8.08684 12.3614C8.3342 12.062 8.29201 11.6188 7.99262 11.3715Z"
        />
        <path d="M11.6229 4.53516H9.54871C9.16037 4.53516 8.84558 4.84995 8.84558 5.23828C8.84558 5.62662 9.16037 5.94141 9.54871 5.94141H11.6229C12.0113 5.94141 12.326 5.62662 12.326 5.23828C12.326 4.84995 12.0113 4.53516 11.6229 4.53516Z"
        />
        <path d="M7.99262 7.11762C7.6933 6.8703 7.25008 6.91249 7.00276 7.21184L5.48341 9.05075L4.88311 8.4377C4.61139 8.16025 4.16624 8.15561 3.88879 8.42729C3.61133 8.69898 3.60669 9.14416 3.87835 9.42162L4.63259 10.1919C4.63835 10.1977 4.64422 10.2035 4.6502 10.2092C4.87812 10.4262 5.18236 10.5469 5.49529 10.5469C5.52218 10.5468 5.54918 10.5459 5.57618 10.5441C5.91523 10.5215 6.23188 10.3574 6.44592 10.0936L8.08684 8.10751C8.3342 7.80812 8.29201 7.36494 7.99262 7.11762Z"
        />
    </symbol>
    <symbol viewBox="0 0 18 18" id="navbar-5">
        <path d="M17.2969 6.8047C17.6852 6.8047 18 6.48991 18 6.10158V0.757825C18 0.537009 17.8963 0.329024 17.7199 0.196204C17.5435 0.0633487 17.315 0.0210557 17.1028 0.0820166C16.2884 0.315911 15.2503 0.249923 13.9361 0.166321C13.1132 0.114009 12.1805 0.0547002 11.1094 0.0547002C10.27 0.0547002 9.51579 0.424825 9.00001 1.00986C8.48423 0.424825 7.73006 0.0547002 6.89063 0.0547002C5.81953 0.0547002 4.88683 0.114009 4.06393 0.166356C2.74976 0.249923 1.71166 0.315911 0.897267 0.0820518C0.684994 0.0210908 0.456513 0.0633838 0.280099 0.196239C0.10372 0.32906 9.55296e-06 0.537044 9.55296e-06 0.757825V12.4225C-0.00192404 13.1751 0.289732 13.883 0.821189 14.4159C1.35272 14.9488 2.05988 15.2422 2.81251 15.2422H8.29688C8.29688 15.6305 8.61167 15.9453 9.00001 15.9453C9.38835 15.9453 9.70313 15.6305 9.70313 15.2422H15.1875C16.7383 15.2422 18 13.9805 18 12.4297V9.6172C18 9.22886 17.6852 8.91408 17.2969 8.91408C16.9085 8.91408 16.5938 9.22886 16.5938 9.6172C16.5938 10.3926 15.9629 11.0235 15.1875 11.0235H10.0547C9.93432 11.0235 9.81676 11.0357 9.70313 11.0588V2.8672C9.70313 2.09179 10.334 1.46095 11.1094 1.46095C12.1358 1.46095 13.0448 1.51878 13.8468 1.56976C14.8957 1.63645 15.785 1.69298 16.5938 1.60523V6.10158C16.5938 6.48991 16.9085 6.8047 17.2969 6.8047ZM8.29688 13.836H2.81251C2.4362 13.836 2.0826 13.6892 1.81685 13.4228C1.5511 13.1564 1.40531 12.8024 1.40626 12.4243V12.0513C1.82029 12.2915 2.30042 12.4297 2.81251 12.4297H7.94532C8.13917 12.4297 8.29688 12.5874 8.29688 12.7813V13.836ZM8.29688 11.0588C8.18326 11.0357 8.0657 11.0235 7.94532 11.0235H2.81251C2.0371 11.0235 1.40626 10.3926 1.40626 9.6172V1.60527C2.21496 1.69298 3.10438 1.63645 4.15319 1.56976C4.95521 1.51878 5.86421 1.46095 6.89063 1.46095C7.66604 1.46095 8.29688 2.09179 8.29688 2.8672V11.0588ZM10.0547 12.4297H15.1875C15.6996 12.4297 16.1797 12.2915 16.5938 12.0513V12.4297C16.5938 13.2051 15.9629 13.836 15.1875 13.836H9.70313V12.7813C9.70313 12.5874 9.86088 12.4297 10.0547 12.4297Z"
        />
    </symbol>
    <symbol viewBox="0 0 18 18" id="navbar-help">
        <path d="M9 5.16797C9.38833 5.16797 9.70312 4.85317 9.70312 4.46484C9.70312 4.07652 9.38833 3.76172 9 3.76172C8.61167 3.76172 8.29688 4.07652 8.29688 4.46484C8.29688 4.85317 8.61167 5.16797 9 5.16797Z"
        />
        <path d="M15.364 2.63602C13.6641 0.936176 11.404 0 9 0C6.59602 0 4.33593 0.936176 2.63602 2.63602C0.936176 4.33593 0 6.59602 0 9C0 11.404 0.936176 13.6641 2.63602 15.364C4.33593 17.0638 6.59602 18 9 18C10.6458 18 12.2561 17.5515 13.6568 16.703C13.989 16.5017 14.0951 16.0694 13.8939 15.7373C13.6927 15.4051 13.2604 15.299 12.9283 15.5002C11.7472 16.2156 10.3889 16.5938 9 16.5938C4.81279 16.5938 1.40625 13.1872 1.40625 9C1.40625 4.81279 4.81279 1.40625 9 1.40625C13.1872 1.40625 16.5938 4.81279 16.5938 9C16.5938 10.4973 16.1485 11.9547 15.3061 13.2147C15.0903 13.5375 15.177 13.9742 15.4998 14.19C15.8227 14.4058 16.2593 14.3191 16.4751 13.9963C17.4727 12.5042 18 10.7764 18 9C18 6.59602 17.0638 4.33593 15.364 2.63602Z"
        />
        <path d="M9 6.57422C8.61166 6.57422 8.29688 6.88901 8.29688 7.27734V13.5352C8.29688 13.9235 8.61166 14.2383 9 14.2383C9.38834 14.2383 9.70312 13.9235 9.70312 13.5352V7.27734C9.70312 6.88901 9.38834 6.57422 9 6.57422Z"
        />
    </symbol>
    <symbol viewBox="0 0 50 50" id="card-1">
        <path d="M23.3835 32.6172V32.3672H23.1335H18.2507C17.3103 32.3672 16.5475 31.6048 16.5475 30.6641C16.5475 29.7234 17.3103 28.9609 18.2507 28.9609H23.1335H23.3835V28.7109V23.8281C23.3835 22.8874 24.1462 22.125 25.0866 22.125C26.0273 22.125 26.7897 22.8874 26.7897 23.8281V28.7109V28.9609H27.0397H31.9225C32.8633 28.9609 33.6257 29.7233 33.6257 30.6641C33.6257 31.6048 32.8633 32.3672 31.9225 32.3672H27.0397H26.7897V32.6172V37.5C26.7897 38.4407 26.0273 39.2031 25.0866 39.2031C24.1462 39.2031 23.3835 38.4407 23.3835 37.5V32.6172ZM30.8483 8.53906H30.5983V8.78906V9.76562C30.5983 12.8586 28.0819 15.375 24.9889 15.375C21.8963 15.375 19.3796 12.8586 19.3796 9.76562V8.78906V8.53906H19.1296H12.9883C10.696 8.53906 8.83203 10.4035 8.83203 12.6953V42.1875C8.83203 44.4793 10.696 46.3438 12.9883 46.3438H37.0007C39.2929 46.3438 41.1569 44.4793 41.1569 42.1875C41.1569 41.2468 41.9197 40.4844 42.86 40.4844C43.8008 40.4844 44.5632 41.2468 44.5632 42.1875C44.5632 46.3574 41.1705 49.75 37.0007 49.75H12.9883C8.81841 49.75 5.42578 46.3574 5.42578 42.1875V12.6953C5.42578 8.52545 8.81841 5.13281 12.9883 5.13281H19.1299H19.3799V4.88281V1.95312C19.3799 1.0124 20.1423 0.25 21.0831 0.25H28.8956C29.8359 0.25 30.5987 1.01243 30.5987 1.95312V4.88281V5.13281H30.8487H37.001C41.1705 5.13281 44.5635 8.52545 44.5635 12.6953V32.5195C44.5635 33.4602 43.8008 34.2227 42.8604 34.2227C41.9196 34.2227 41.1569 33.4602 41.1569 32.5195V12.6953C41.1569 10.4035 39.2929 8.53906 37.0007 8.53906H30.8483ZM27.1921 3.90625V3.65625H26.9421H23.0358H22.7858V3.90625V9.76562C22.7858 10.9806 23.774 11.9688 24.9889 11.9688C26.2039 11.9688 27.1921 10.9806 27.1921 9.76562V3.90625Z"
        />
    </symbol>
    <symbol viewBox="0 0 50 50" id="card-2">
        <path d="M3.17969 3.90625V3.65625H2.92969H1.95312C1.0124 3.65625 0.25 2.89385 0.25 1.95312C0.25 1.0124 1.0124 0.25 1.95312 0.25H20.9961C21.9368 0.25 22.6992 1.0124 22.6992 1.95312C22.6992 2.89385 21.9368 3.65625 20.9961 3.65625H20.0195H19.7695V3.90625V8.78906C19.7695 9.72979 19.0071 10.4922 18.0664 10.4922C17.1257 10.4922 16.3633 9.72979 16.3633 8.78906V3.90625V3.65625H16.1133H6.83594H6.58594V3.90625V16.6016V16.8516H6.83594H18.0664C19.0071 16.8516 19.7695 17.614 19.7695 18.5547V41.4551C19.7695 46.0285 16.0481 49.75 11.4746 49.75C6.90115 49.75 3.17969 46.0285 3.17969 41.4551V3.90625ZM16.3633 20.5078V20.2578H16.1133H6.83594H6.58594V20.5078V41.4551C6.58594 44.1509 8.77878 46.3438 11.4746 46.3438C14.1704 46.3438 16.3633 44.1509 16.3633 41.4551V20.5078ZM30.2305 3.90625V3.65625H29.9805H29.0039C28.0632 3.65625 27.3008 2.89385 27.3008 1.95312C27.3008 1.0124 28.0632 0.25 29.0039 0.25H48.0469C48.9876 0.25 49.75 1.0124 49.75 1.95312C49.75 2.89385 48.9876 3.65625 48.0469 3.65625H47.0703H46.8203V3.90625V14.6484C46.8203 15.5892 46.0579 16.3516 45.1172 16.3516C44.1765 16.3516 43.4141 15.5892 43.4141 14.6484V3.90625V3.65625H43.1641H33.8867H33.6367V3.90625V22.4609V22.7109H33.8867H45.1172C46.0579 22.7109 46.8203 23.4733 46.8203 24.4141V41.4551C46.8203 46.0285 43.0989 49.75 38.5254 49.75C33.9519 49.75 30.2305 46.0285 30.2305 41.4551V3.90625ZM43.4141 26.3672V26.1172H43.1641H33.8867H33.6367V26.3672V41.4551C33.6367 44.1509 35.8296 46.3438 38.5254 46.3438C41.2212 46.3438 43.4141 44.1509 43.4141 41.4551V26.3672Z"
        />
    </symbol>
    <symbol viewBox="0 0 50 50" id="card-3">
        <path d="M34.1328 38.5195H33.8828V38.7695V40.7227C33.8828 41.6634 33.1204 42.4258 32.1797 42.4258C31.239 42.4258 30.4766 41.6634 30.4766 40.7227V38.7695V38.5195H30.2266H28.2734C27.3327 38.5195 26.5703 37.7571 26.5703 36.8164C26.5703 35.8757 27.3327 35.1133 28.2734 35.1133H30.2266H30.4766V34.8633V32.9102C30.4766 31.9694 31.239 31.207 32.1797 31.207C33.1204 31.207 33.8828 31.9694 33.8828 32.9102V34.8633V35.1133H34.1328H36.0859C37.0267 35.1133 37.7891 35.8757 37.7891 36.8164C37.7891 37.7571 37.0267 38.5195 36.0859 38.5195H34.1328ZM3.02794 8.94446L3.02795 8.94445L9.47745 2.43735C9.47745 2.43735 9.47745 2.43734 9.47746 2.43734C10.8549 1.04771 12.7685 0.25 14.7255 0.25H32.462C36.6315 0.25 40.0245 3.64264 40.0245 7.8125V18.1641C40.0245 19.1048 39.2617 19.8672 38.3214 19.8672C37.3806 19.8672 36.6182 19.1048 36.6182 18.1641V7.8125C36.6182 5.52065 34.7538 3.65625 32.462 3.65625H14.7255C13.6701 3.65625 12.6395 4.0857 11.8968 4.83537C11.8968 4.83539 11.8967 4.8354 11.8967 4.83541L5.4473 11.3421C5.11094 11.6813 4.84342 12.0712 4.65079 12.494L4.48963 12.8477H4.87828H10.3047C12.0583 12.8477 13.4844 11.4212 13.4844 9.66797C13.4844 8.72724 14.2468 7.96484 15.1875 7.96484C16.1282 7.96484 16.8906 8.72724 16.8906 9.66797C16.8906 13.2992 13.9359 16.2539 10.3047 16.2539H4.54297H4.29297V16.5039V42.1875C4.29297 44.4794 6.15737 46.3438 8.44922 46.3438H16.2617C17.2024 46.3438 17.9648 47.1062 17.9648 48.0469C17.9648 48.9876 17.2024 49.75 16.2617 49.75H8.44922C4.27935 49.75 0.886719 46.3574 0.886719 42.1875V14.146C0.886719 12.1841 1.64688 10.3377 3.02794 8.94446ZM19.2461 36.8164C19.2461 29.6852 25.0485 23.8828 32.1797 23.8828C39.3109 23.8828 45.1133 29.6852 45.1133 36.8164C45.1133 43.9476 39.3109 49.75 32.1797 49.75C25.0485 49.75 19.2461 43.9476 19.2461 36.8164ZM22.6523 36.8164C22.6523 42.07 26.9261 46.3438 32.1797 46.3438C37.4333 46.3438 41.707 42.07 41.707 36.8164C41.707 31.5628 37.4333 27.2891 32.1797 27.2891C26.9261 27.2891 22.6523 31.5628 22.6523 36.8164Z"/>
    </symbol>
    <symbol viewBox="0 0 50 50" id="card-4">
        <path d="M5.77965 41.2206L5.77932 41.221L2.40707 44.5806L2.40674 44.5809C1.54012 45.4478 1.28309 46.7398 1.75215 47.8735L1.75217 47.8735C2.22167 49.0089 3.31776 49.7429 4.54687 49.7443L13.3994 49.75H13.3995H13.4028C14.6342 49.75 15.7906 49.2709 16.6615 48.4L16.6616 48.3999C17.5336 47.5283 18.0127 46.3709 18.0119 45.1379L18.007 36.2842C18.0056 35.0559 17.2716 33.9597 16.1362 33.4902L16.1362 33.4902C15.0023 33.0211 13.7102 33.2782 12.8433 34.1451L12.8433 34.1452L12.8433 34.1452L12.8432 34.1452L12.8432 34.1452L12.8432 34.1453L12.8432 34.1453L12.8431 34.1453L12.8431 34.1454L12.8431 34.1454L12.843 34.1454L12.843 34.1455L12.843 34.1455L12.8429 34.1455L12.8429 34.1455L12.8429 34.1456L12.8429 34.1456L12.8428 34.1456L12.8428 34.1457L12.8428 34.1457L12.8427 34.1457L12.8427 34.1457L12.8427 34.1458L12.8427 34.1458L12.8426 34.1458L12.8426 34.1459L12.8426 34.1459L12.8425 34.1459L12.8425 34.1459L12.8425 34.146L12.8425 34.146L12.8424 34.146L12.8424 34.1461L12.8424 34.1461L12.8423 34.1461L12.8423 34.1462L12.8423 34.1462L12.8422 34.1462L12.8422 34.1462L12.8422 34.1463L12.8422 34.1463L12.8421 34.1463L12.8421 34.1464L12.8421 34.1464L12.842 34.1464L12.842 34.1464L12.842 34.1465L12.842 34.1465L12.8419 34.1465L12.8419 34.1466L12.8419 34.1466L12.8418 34.1466L12.8418 34.1467L12.8418 34.1467L12.8417 34.1467L12.8417 34.1467L12.8417 34.1468L12.8417 34.1468L12.8416 34.1468L12.8416 34.1469L12.8416 34.1469L12.8415 34.1469L12.8415 34.1469L12.8415 34.147L12.8415 34.147L12.8414 34.147L12.8414 34.1471L12.8414 34.1471L12.8413 34.1471L12.8413 34.1472L12.8413 34.1472L12.8412 34.1472L12.8412 34.1472L12.8412 34.1473L12.8412 34.1473L12.8411 34.1473L12.8411 34.1474L12.8411 34.1474L12.841 34.1474L12.841 34.1474L12.841 34.1475L12.8409 34.1475L12.8409 34.1475L12.8409 34.1476L12.8409 34.1476L12.8408 34.1476L12.8408 34.1477L12.8408 34.1477L12.8407 34.1477L12.8407 34.1477L12.8407 34.1478L12.8407 34.1478L12.8406 34.1478L12.8406 34.1479L12.8406 34.1479L12.8405 34.1479L12.8405 34.148L12.8405 34.148L12.8404 34.148L12.8404 34.148L12.8404 34.1481L12.8404 34.1481L12.8403 34.1481L12.8403 34.1482L12.8403 34.1482L12.8402 34.1482L12.8402 34.1483L12.8402 34.1483L12.8401 34.1483L12.8401 34.1483L12.8401 34.1484L12.8401 34.1484L12.84 34.1484L12.84 34.1485L12.84 34.1485L12.8399 34.1485L12.8399 34.1486L12.8399 34.1486L12.8398 34.1486L12.8398 34.1486L12.8398 34.1487L12.8398 34.1487L12.8397 34.1487L12.8397 34.1488L12.8397 34.1488L12.8396 34.1488L12.8396 34.1488L12.8396 34.1489L12.8395 34.1489L12.8395 34.1489L12.8395 34.149L12.8395 34.149L12.8394 34.149L12.8394 34.1491L12.8394 34.1491L12.8393 34.1491L12.8393 34.1491L12.8393 34.1492L12.8392 34.1492L12.8392 34.1492L12.8392 34.1493L12.8392 34.1493L12.8391 34.1493L12.8391 34.1494L12.8391 34.1494L12.839 34.1494L12.839 34.1494L12.839 34.1495L12.8389 34.1495L12.8389 34.1495L12.8389 34.1496L12.8389 34.1496L12.8388 34.1496L12.8388 34.1497L12.8388 34.1497L12.8387 34.1497L12.8387 34.1497L12.8387 34.1498L12.8386 34.1498L12.8386 34.1498L12.8386 34.1499L12.8386 34.1499L12.8385 34.1499L12.8385 34.15L12.8385 34.15L12.8384 34.15L12.8384 34.15L12.8384 34.1501L12.8383 34.1501L12.8383 34.1501L12.8383 34.1502L12.8383 34.1502L12.8382 34.1502L12.8382 34.1503L12.8382 34.1503L12.8381 34.1503L12.8381 34.1503L12.8381 34.1504L12.838 34.1504L12.838 34.1504L12.838 34.1505L12.838 34.1505L12.8379 34.1505L12.8379 34.1506L12.8379 34.1506L12.8378 34.1506L12.8378 34.1507L12.8378 34.1507L12.8377 34.1507L12.8377 34.1507L12.8377 34.1508L12.8377 34.1508L12.8376 34.1508L12.8376 34.1509L12.8376 34.1509L12.8375 34.1509L12.8375 34.151L12.8375 34.151L12.8374 34.151L12.8374 34.151L12.8374 34.1511L12.8374 34.1511L12.8373 34.1511L12.8373 34.1512L12.8373 34.1512L12.8372 34.1512L12.8372 34.1513L12.8372 34.1513L12.8371 34.1513L12.8371 34.1513L12.8371 34.1514L12.8371 34.1514L12.837 34.1514L12.837 34.1515L12.837 34.1515L12.8369 34.1515L12.8369 34.1516L12.8369 34.1516L12.8368 34.1516L12.8368 34.1516L12.8368 34.1517L12.8368 34.1517L12.8367 34.1517L12.8367 34.1518L12.8367 34.1518L12.8366 34.1518L12.8366 34.1519L12.8366 34.1519L12.8365 34.1519L12.8365 34.1519L12.8365 34.152L12.8365 34.152L12.8364 34.152L12.8364 34.1521L12.8364 34.1521L12.8363 34.1521L12.8363 34.1522L12.8363 34.1522L12.8362 34.1522L12.8362 34.1522L12.8362 34.1523L12.8361 34.1523L12.8361 34.1523L12.8361 34.1524L12.8361 34.1524L12.836 34.1524L12.836 34.1525L12.836 34.1525L12.8359 34.1525L12.8359 34.1525L12.8359 34.1526L12.8358 34.1526L12.8358 34.1526L12.8358 34.1527L12.8358 34.1527L12.8357 34.1527L12.8357 34.1528L12.8357 34.1528L12.8356 34.1528L12.8356 34.1529L12.8356 34.1529L12.8355 34.1529L12.8355 34.1529L12.8355 34.153L12.8355 34.153L12.8354 34.153L12.8354 34.1531L12.8354 34.1531L12.8353 34.1531L12.8353 34.1532L12.8353 34.1532L12.8352 34.1532L12.8352 34.1532L12.8352 34.1533L12.8352 34.1533L12.8351 34.1533L12.8351 34.1534L12.8351 34.1534L12.835 34.1534L12.835 34.1535L12.835 34.1535L12.8349 34.1535L12.8349 34.1535L12.8349 34.1536L12.8349 34.1536L12.8348 34.1536L12.8348 34.1537L12.8348 34.1537L12.8347 34.1537L12.8347 34.1538L12.8347 34.1538L12.8346 34.1538L12.8346 34.1538L12.8346 34.1539L12.8346 34.1539L12.8345 34.1539L12.8345 34.154L12.8345 34.154L12.8344 34.154L12.8344 34.1541L12.8344 34.1541L12.8343 34.1541L12.8343 34.1541L12.8343 34.1542L12.8342 34.1542L12.8342 34.1542L12.8342 34.1543L12.8342 34.1543L12.8341 34.1543L12.8341 34.1544L12.8341 34.1544L12.834 34.1544L12.834 34.1544L12.834 34.1545L12.8339 34.1545L12.8339 34.1545L12.8339 34.1546L12.8339 34.1546L12.8338 34.1546L12.8338 34.1547L12.8338 34.1547L12.8337 34.1547L12.8337 34.1548L12.8337 34.1548L12.8336 34.1548L12.8336 34.1548L12.8336 34.1549L12.8336 34.1549L12.8335 34.1549L12.8335 34.155L12.8335 34.155L12.8334 34.155L12.8334 34.155L12.8334 34.1551L12.8333 34.1551L12.8333 34.1551L12.8333 34.1552L12.8333 34.1552L12.8332 34.1552L12.8332 34.1553L12.8332 34.1553L12.8331 34.1553L12.8331 34.1553L12.8331 34.1554L12.833 34.1554L12.833 34.1554L12.833 34.1555L12.833 34.1555L12.8329 34.1555L12.8329 34.1556L12.8329 34.1556L12.8328 34.1556L12.8328 34.1557L12.8328 34.1557L12.8327 34.1557L12.8327 34.1557L12.8327 34.1558L12.8327 34.1558L12.8326 34.1558L12.8326 34.1559L12.8326 34.1559L12.8325 34.1559L12.8325 34.156L12.8325 34.156L12.8324 34.156L12.8324 34.156L12.8324 34.1561L12.8324 34.1561L12.8323 34.1561L12.8323 34.1562L12.8323 34.1562L12.8322 34.1562L12.8322 34.1562L12.8322 34.1563L12.8321 34.1563L12.8321 34.1563L12.8321 34.1564L12.8321 34.1564L12.832 34.1564L12.832 34.1565L12.832 34.1565L12.8319 34.1565L12.8319 34.1566L12.8319 34.1566L12.8318 34.1566L12.8318 34.1566L12.8318 34.1567L12.8318 34.1567L12.8317 34.1567L12.8317 34.1568L12.8317 34.1568L12.8316 34.1568L12.8316 34.1568L12.8316 34.1569L12.8315 34.1569L12.8315 34.1569L12.8315 34.157L12.8315 34.157L12.8314 34.157L12.8314 34.1571L12.8314 34.1571L12.8313 34.1571L12.8313 34.1571L12.8313 34.1572L12.8312 34.1572L12.8312 34.1572L12.8312 34.1573L12.8312 34.1573L12.8311 34.1573L12.8311 34.1574L12.8311 34.1574L12.831 34.1574L12.831 34.1574L12.831 34.1575L12.831 34.1575L12.8309 34.1575L12.8309 34.1576L12.8309 34.1576L12.8308 34.1576L12.8308 34.1577L12.8308 34.1577L12.8307 34.1577L12.8307 34.1577L12.8307 34.1578L12.8307 34.1578L12.8306 34.1578L12.8306 34.1579L12.8306 34.1579L12.8305 34.1579L12.8305 34.158L12.8305 34.158L12.8304 34.158L12.8304 34.158L12.8304 34.1581L12.8304 34.1581L12.8303 34.1581L12.8303 34.1582L12.8303 34.1582L12.8302 34.1582L12.8302 34.1582L12.8302 34.1583L12.8302 34.1583L12.8301 34.1583L12.8301 34.1584L12.8301 34.1584L12.83 34.1584L12.83 34.1585L12.83 34.1585L12.8299 34.1585L12.8299 34.1585L12.8299 34.1586L12.8299 34.1586L12.8298 34.1586L12.8298 34.1587L12.8298 34.1587L12.8297 34.1587L12.8297 34.1587L12.8297 34.1588L12.8296 34.1588L12.8296 34.1588L12.8296 34.1589L12.8296 34.1589L12.8295 34.1589L12.8295 34.159L12.8295 34.159L12.8294 34.159L12.8294 34.159L12.8294 34.1591L12.8294 34.1591L12.8293 34.1591L12.8293 34.1592L12.8293 34.1592L12.8292 34.1592L12.8292 34.1592L12.8292 34.1593L12.8291 34.1593L12.8291 34.1593L12.8291 34.1594L12.8291 34.1594L12.829 34.1594L12.829 34.1595L12.829 34.1595L12.8289 34.1595L12.8289 34.1595L12.8289 34.1596L12.8289 34.1596L12.8288 34.1596L12.8288 34.1597L12.8288 34.1597L12.8287 34.1597L12.8287 34.1597L12.8287 34.1598L12.8287 34.1598L12.8286 34.1598L12.8286 34.1599L12.8286 34.1599L12.8285 34.1599L12.8285 34.16L12.8285 34.16L12.8284 34.16L12.8284 34.16L12.8284 34.1601L12.8284 34.1601L12.8283 34.1601L12.8283 34.1602L12.8283 34.1602L12.8282 34.1602L12.8282 34.1602L12.8282 34.1603L12.8282 34.1603L12.8281 34.1603L12.8281 34.1604L12.8281 34.1604L12.0641 34.9419L12.064 34.942C11.4061 35.6142 11.418 36.6922 12.0906 37.3503L11.9158 37.529L12.0906 37.3503C12.6728 37.9198 13.5597 37.9874 14.2144 37.558L14.6012 37.3042L14.6015 37.7669L14.6057 45.1399V45.1401C14.6057 45.5743 14.3842 45.8608 14.2529 45.9916C14.122 46.1228 13.836 46.3438 13.4028 46.3438H13.4027H13.4027H13.4027H13.4027H13.4026H13.4026H13.4026H13.4025H13.4025H13.4025H13.4025H13.4024H13.4024H13.4024H13.4023H13.4023H13.4023H13.4023H13.4022H13.4022H13.4022H13.4021H13.4021H13.4021H13.4021H13.402H13.4019L6.07344 46.3388L5.46882 46.3384L5.89717 45.9117L8.18565 43.632C8.18568 43.6319 8.18571 43.6319 8.18574 43.6319C9.58718 42.2304 9.69745 40.0107 8.44057 38.4674L8.63441 38.3095L8.44056 38.4673C5.30875 34.6214 3.61016 29.765 3.65725 24.7924C3.76803 13.1298 13.3382 3.65625 25.0006 3.65625H25.0334H25.0338C36.7844 3.67439 46.344 13.249 46.344 25C46.344 29.2093 45.0922 33.3061 42.7252 36.8466L42.7251 36.8467C42.2023 37.6283 42.4124 38.6861 43.1941 39.209C43.9759 39.7316 45.034 39.5217 45.5565 38.7397L45.5566 38.7397C48.3004 34.6357 49.7503 29.8847 49.7503 25C49.7503 18.3955 47.1806 12.1854 42.514 7.51193C37.8478 2.83891 31.6426 0.260247 25.0393 0.25H25.0393H25.0392H25.0391H25.0391H25.039H25.0389H25.0388H25.0387H25.0387H25.0386H25.0385H25.0384H25.0384H25.0383H25.0382H25.0381H25.038H25.038H25.0379H25.0378H25.0377H25.0377H25.0376H25.0375H25.0374H25.0373H25.0373H25.0372H25.0371H25.037H25.037H25.0369H25.0368H25.0367H25.0366H25.0366H25.0365H25.0364H25.0363H25.0363H25.0362H25.0361H25.036H25.036H25.0359H25.0358H25.0357H25.0356H25.0356H25.0355H25.0354H25.0353H25.0353H25.0352H25.0351H25.035H25.035H25.0349H25.0348H25.0347H25.0346H25.0346H25.0345H25.0344H25.0343H25.0343H25.0342H25.0341H25.034H25.034H25.0339H25.0338H25.0337H25.0337H25.0336H25.0335H25.0334H25.0333H25.0333H25.0332H25.0331H25.033H25.033H25.0329H25.0328H25.0327H25.0327H25.0326H25.0325H25.0324H25.0324H25.0323H25.0322H25.0321H25.032H25.032H25.0319H25.0318H25.0317H25.0317H25.0316H25.0315H25.0314H25.0314H25.0313H25.0312H25.0311H25.0311H25.031H25.0309H25.0308H25.0308H25.0307H25.0306H25.0305H25.0305H25.0304H25.0303H25.0302H25.0301H25.0301H25.03H25.0299H25.0298H25.0298H25.0297H25.0296H25.0295H25.0295H25.0294H25.0293H25.0292H25.0292H25.0291H25.029H25.0289H25.0289H25.0288H25.0287H25.0286H25.0286H25.0285H25.0284H25.0283H25.0283H25.0282H25.0281H25.028H25.028H25.0279H25.0278H25.0277H25.0277H25.0276H25.0275H25.0274H25.0274H25.0273H25.0272H25.0271H25.0271H25.027H25.0269H25.0268H25.0267H25.0267H25.0266H25.0265H25.0264H25.0264H25.0263H25.0262H25.0261H25.0261H25.026H25.0259H25.0258H25.0258H25.0257H25.0256H25.0255H25.0255H25.0254H25.0253H25.0252H25.0252H25.0251H25.025H25.0249H25.0249H25.0248H25.0247H25.0246H25.0246H25.0245H25.0244H25.0243H25.0243H25.0242H25.0241H25.024H25.024H25.0239H25.0238H25.0237H25.0237H25.0236H25.0235H25.0234H25.0234H25.0233H25.0232H25.0231H25.0231H25.023H25.0229H25.0228H25.0228H25.0227H25.0226H25.0225H25.0225H25.0224H25.0223H25.0222H25.0222H25.0221H25.022H25.0219H25.0219H25.0218H25.0217H25.0216H25.0216H25.0215H25.0214H25.0213H25.0213H25.0212H25.0211H25.021H25.021H25.0209H25.0208H25.0207H25.0207H25.0206H25.0205H25.0204H25.0204H25.0203H25.0202H25.0201H25.0201H25.02H25.0199H25.0198H25.0198H25.0197H25.0196H25.0195H25.0195H25.0194H25.0193H25.0192H25.0192H25.0191H25.019H25.0189H25.0189H25.0188H25.0187H25.0187H25.0186H25.0185H25.0184H25.0184H25.0183H25.0182H25.0181H25.0181H25.018H25.0179H25.0178H25.0178H25.0177H25.0176H25.0175H25.0175H25.0174H25.0173H25.0172H25.0172H25.0171H25.017H25.0169H25.0169H25.0168H25.0167H25.0166H25.0166H25.0165H25.0164H25.0163H25.0163H25.0162H25.0161H25.016H25.016H25.0159H25.0158H25.0157H25.0157H25.0156H25.0155H25.0154H25.0154H25.0153H25.0152H25.0151H25.0151H25.015H25.0149H25.0148H25.0147H25.0147H25.0146H25.0145H25.0145H25.0144H25.0143H25.0142H25.0141H25.0141H25.014H25.0139H25.0138H25.0138H25.0137H25.0136H25.0135H25.0135H25.0134H25.0133H25.0132H25.0132H25.0131H25.013H25.0129H25.0129H25.0128H25.0127H25.0126H25.0126H25.0125H25.0124H25.0123H25.0123H25.0122H25.0121H25.012H25.012H25.0119H25.0118H25.0117H25.0117H25.0116H25.0115H25.0114H25.0114H25.0113H25.0112H25.0111H25.0111H25.011H25.0109H25.0108H25.0108H25.0107H25.0106H25.0105H25.0105H25.0104H25.0103H25.0102H25.0101H25.0101H25.01H25.0099H25.0098H25.0098H25.0097H25.0096H25.0095H25.0095H25.0094H25.0093H25.0092H25.0092H25.0091H25.009H25.0089H25.0089H25.0088H25.0087H25.0086H25.0086H25.0085H25.0084H25.0083H25.0083H25.0082H25.0081H25.008H25.0079H25.0079H25.0078H25.0077H25.0076H25.0076H25.0075H25.0074H25.0073H25.0073H25.0072H25.0071H25.007H25.007H25.0069H25.0068H25.0067H25.0066H25.0066H25.0065H25.0064H25.0063H25.0063H25.0062H25.0061H25.006H25.006H25.0059H25.0058H25.0057H25.0057H25.0056H25.0055H25.0054H25.0053H25.0053H25.0052H25.0051H25.005H25.005H25.0049H25.0048H25.0047H25.0047H25.0046H25.0045H25.0044H25.0043H25.0043H25.0042H25.0041H25.004H25.004H25.0039H25.0038H25.0037H25.0037H25.0036H25.0035H25.0034H25.0033H25.0033H25.0032H25.0031H25.003H25.003H25.0029H25.0028H25.0027H25.0026H25.0026H25.0025H25.0024H25.0023H25.0023H25.0022H25.0021H25.002H25.0019H25.0019H25.0018H25.0017H25.0016H25.0016H25.0015H25.0014H25.0013H25.0012H25.0012H25.0011H25.001H25.0009H25.0009H25.0008H25.0007H25.0006C11.4791 0.25 0.379375 11.2381 0.251355 24.7601L0.00136668 24.7578L0.251355 24.7601C0.196596 30.5257 2.16726 36.1574 5.79919 40.6179L5.77965 41.2206ZM5.77965 41.2206C5.95024 41.05 5.93742 40.7875 5.7994 40.6182L5.77965 41.2206ZM23.1723 21.8339L23.2971 21.7617V21.6175V9.76562C23.2971 8.8249 24.0595 8.0625 25.0002 8.0625C25.941 8.0625 26.7034 8.8249 26.7034 9.76562V21.6175V21.7617L26.8281 21.8339C27.9215 22.4667 28.6565 23.6472 28.6565 25C28.6565 25.3273 28.6126 25.6444 28.5318 25.9468L28.4946 26.0861L28.5966 26.1881L33.7727 31.3642L33.7728 31.3643C34.438 32.0292 34.438 33.1075 33.7728 33.7725L33.7727 33.7726C33.4404 34.1052 33.0048 34.2715 32.5686 34.2715C32.1321 34.2715 31.6968 34.1052 31.3645 33.7726L31.3644 33.7725L26.1883 28.5967L26.0863 28.4948L25.947 28.532C25.6448 28.6127 25.3278 28.6562 25.0002 28.6562C22.9811 28.6562 21.344 27.0191 21.344 25C21.344 23.6472 22.079 22.4667 23.1723 21.8339ZM36.0417 43.2699L36.0417 43.2699C36.846 42.7826 37.8932 43.0397 38.3809 43.8441C38.8682 44.6488 38.611 45.6959 37.8064 46.1832L37.8064 46.1832C33.9546 48.5165 29.5263 49.75 25.0002 49.75C24.0595 49.75 23.2971 48.9876 23.2971 48.0469C23.2971 47.1062 24.0595 46.3438 25.0002 46.3438C28.9034 46.3438 32.7214 45.2808 36.0417 43.2699Z"/>
    </symbol>
</svg>

